<svg viewBox="0 0 25 22" fill="none" xmlns="http://www.w3.org/2000/svg"><path d="M24.79 16.734c-.89-1.585-4.786-2.595-8.227-2.786a46.59 46.59 0 0 1-.95-1.037c-2.957-3.335-4.155-8.183-4.602-10.75a28.485 28.485 0 0 0-.16-1.334C10.81.56 10.726 0 10.136 0c-.189 0-.37.08-.5.222-.21.237-.179.491-.142.785.042.337.105.788.195 1.302.252 2.608.37 7.571-1.663 11.514a40.95 40.95 0 0 1-.634 1.182C3.587 16.097.516 18.045.066 19.66a1.58 1.58 0 0 0 .4 1.58c.489.504 1.067.76 1.718.76 1.8 0 3.853-1.978 6.1-5.878a19.67 19.67 0 0 1 2.955-.537c.374-.037.98-.115 1.352-.171a18.764 18.764 0 0 1 3.377-.18c2.76 2.829 5.015 4.263 6.706 4.263.908 0 1.66-.437 2.115-1.229.28-.49.282-1.036.001-1.534zM2.183 20.689c-.282 0-.522-.113-.758-.356-.097-.099-.118-.184-.078-.324.232-.832 2.18-2.258 5.028-3.293-1.61 2.504-3.149 3.973-4.192 3.973zm10.204-6.57c-.354.055-.928.128-1.283.165-.645.063-1.308.163-1.978.298l.084-.163c.998-1.933 1.616-4.25 1.844-6.908.915 2.527 2.109 4.628 3.558 6.263l.13.148a18.64 18.64 0 0 0-2.356.198zm11.243 3.505c-.22.386-.534.565-.984.565-1.057 0-2.682-.987-4.627-2.796 3.01.373 5.214 1.271 5.61 1.976.057.102.057.157.001.255z" fill="#fff"/></svg>