<svg viewBox="0 0 20 14" fill="none" xmlns="http://www.w3.org/2000/svg"><path d="M16.193 10.813a.322.322 0 0 1-.22-.086l-3.711-3.428a.314.314 0 0 1-.014-.448.325.325 0 0 1 .456-.014l3.71 3.428c.13.119.136.32.015.448a.324.324 0 0 1-.236.1zm-12.386 0a.325.325 0 0 1-.235-.1.314.314 0 0 1 .014-.448l3.712-3.428a.326.326 0 0 1 .456.014.314.314 0 0 1-.014.448l-3.712 3.428a.322.322 0 0 1-.22.086z" fill="#fff"/><path d="M18.388 14H1.612C.724 14 0 13.288 0 12.412V1.588C0 .712.724 0 1.612 0h16.776C19.276 0 20 .712 20 1.588v10.825c0 .875-.724 1.587-1.612 1.587zM1.612.635a.961.961 0 0 0-.967.953v10.825a.96.96 0 0 0 .967.952h16.776a.961.961 0 0 0 .967-.953V1.588a.961.961 0 0 0-.967-.953H1.612z" fill="#fff"/><path d="M10 8.595a1.82 1.82 0 0 1-1.185-.42L.535 1.062A.315.315 0 0 1 .502.614a.328.328 0 0 1 .455-.03l8.28 7.112c.413.353 1.11.353 1.52 0L19.03.595a.326.326 0 0 1 .456.03.315.315 0 0 1-.031.449l-8.27 7.1A1.821 1.821 0 0 1 10 8.595z" fill="#fff"/></svg>