<svg viewBox="0 0 15 15" fill="none" xmlns="http://www.w3.org/2000/svg"><path d="M12.056 15c-.624 0-1.378-.156-2.207-.47-1.817-.684-3.795-2.038-5.567-3.811C2.508 8.945 1.154 6.967.468 5.15-.155 3.498-.156 2.142.465 1.521c.09-.09.18-.185.274-.284C1.305.641 1.946-.029 2.794.001c.585.024 1.152.387 1.732 1.11 1.714 2.132.941 2.891.047 3.772l-.158.157c-.147.146-.423.824 2.149 3.396.84.84 1.555 1.454 2.128 1.825.36.235 1.004.589 1.268.324l.16-.16c.88-.893 1.64-1.663 3.77.05.722.58 1.085 1.146 1.109 1.732.034.848-.641 1.49-1.237 2.056-.099.094-.195.184-.284.273-.308.31-.801.464-1.422.464zM2.734.505c-.603 0-1.148.573-1.63 1.08-.096.102-.19.2-.283.293-.462.462-.415 1.676.12 3.095.66 1.751 1.974 3.665 3.698 5.39 1.723 1.722 3.636 3.036 5.389 3.696 1.418.536 2.632.581 3.094.12.092-.093.191-.187.293-.283.518-.492 1.106-1.05 1.08-1.67-.018-.425-.327-.882-.92-1.36-1.776-1.427-2.272-.923-3.096-.088l-.161.163c-.394.394-1.033.307-1.9-.257-.603-.392-1.346-1.028-2.21-1.893-2.135-2.134-2.817-3.44-2.15-4.11l.161-.158c.837-.824 1.343-1.32-.086-3.097-.478-.593-.935-.903-1.36-.921h-.04z" fill="#fff"/></svg>