<svg viewBox="0 0 15 15" fill="none" xmlns="http://www.w3.org/2000/svg"><path d="M7.5 0C3.364 0 0 3.364 0 7.5S3.364 15 7.5 15 15 11.636 15 7.5 11.636 0 7.5 0zm0 14.423A6.931 6.931 0 0 1 .577 7.5 6.931 6.931 0 0 1 7.5.577 6.931 6.931 0 0 1 14.423 7.5 6.931 6.931 0 0 1 7.5 14.423z" fill="#5AD69A"/><path d="M7.5 10.673a.288.288 0 0 0-.29.289v.577a.288.288 0 1 0 .578 0v-.577a.288.288 0 0 0-.289-.289zm.034-8.077H7.5a2.29 2.29 0 0 0-1.62.665 2.291 2.291 0 0 0-.687 1.643.288.288 0 1 0 .577 0c0-.467.183-.905.516-1.232.332-.328.775-.51 1.24-.499.912.013 1.693.794 1.706 1.706a1.723 1.723 0 0 1-.794 1.48c-.767.495-1.225 1.37-1.225 2.34v.82a.288.288 0 1 0 .577 0V8.7c0-.762.368-1.472.96-1.855a2.296 2.296 0 0 0 1.058-1.973 2.323 2.323 0 0 0-2.274-2.275z" fill="#5AD69A"/></svg>