<svg viewBox="0 0 48 48" fill="none" xmlns="http://www.w3.org/2000/svg"><path d="M46.981 20.728h-1.224V12.46c0-1.94-1.528-3.467-3.37-3.467h-.92V3.468c0-1.94-1.431-3.468-3.165-3.468h-.206L3.164 8.983c-.01 0-.03.01-.04.01C1.402 9.13 0 10.609 0 12.46v32.072C0 46.472 1.528 48 3.37 48h39.017a3.437 3.437 0 0 0 3.468-3.468V36.05h1.126c.617 0 1.019-.411 1.019-1.019V21.757c0-.617-.51-1.029-1.019-1.029zM38.498 1.94c.51.098 1.019.715 1.019 1.528v5.515H11.334L38.498 1.94zm5.32 42.592c0 .813-.618 1.528-1.431 1.528H3.37c-.813 0-1.43-.715-1.43-1.528V12.46c0-.813.617-1.528 1.43-1.528h38.91c.812 0 1.43.715 1.43 1.528v8.268H33.6c-4.29 0-7.66 3.37-7.66 7.66a7.646 7.646 0 0 0 7.66 7.661h10.217v8.483zm2.135-10.423H33.6c-3.066 0-5.613-2.556-5.613-5.613 0-3.056 2.557-5.613 5.613-5.613h12.353V34.11z" fill="#0CA765"/><path d="M32.473 28.594c0 .618.51 1.02 1.018 1.02h.921c.51 0 1.02-.412 1.02-1.02 0-.617-.51-1.018-1.02-1.018h-.91c-.618 0-1.03.411-1.03 1.018z" fill="#0CA765"/></svg>