<svg viewBox="0 0 45 45" fill="none" xmlns="http://www.w3.org/2000/svg"><path d="M44.25 0H10.5a.75.75 0 0 0-.75.75V12h1.5V1.5H43.5v41.25a.738.738 0 0 1-.69.75c-.065 0-.13-.005-.194-.007-.133-.004-.266-.007-.396-.02-.012 0-.022 0-.033-.005a5.257 5.257 0 0 1-4.655-4.65c0-.01-.004-.021-.005-.032a5.28 5.28 0 0 1-.027-.536v-1.5a.75.75 0 0 0-.75-.75h-25.5V22.5h-1.5V36h-6a.75.75 0 0 0-.75.75v1.5A6.757 6.757 0 0 0 9.75 45h33.075A2.234 2.234 0 0 0 45 42.75v-42a.75.75 0 0 0-.75-.75zM9.75 43.5a5.256 5.256 0 0 1-5.25-5.25v-.75H36v.75c.001.247.015.494.043.74.006.066.02.128.028.193.025.181.055.362.095.54.013.062.03.124.046.186a6.793 6.793 0 0 0 .212.684c.068.186.145.367.23.547.018.036.034.075.052.108.094.19.198.375.31.555l.044.075c.122.191.254.377.395.555l.024.032a6.625 6.625 0 0 0 1.027 1.037L9.75 43.5z" fill="#0CA765"/><path d="M24.75 21a.75.75 0 0 0 .53-.22l3-3a.75.75 0 0 0 0-1.06l-3-3a.75.75 0 0 0-.53-.22h-21a3.75 3.75 0 0 0 0 7.5h21zm-.194-5.883l2.133 2.133-2.133 2.133-.533-2.133.534-2.133zM6 15h17.04l-.375 1.5H7.5V18h15.165l.375 1.5H6V15zm-4.5 2.25A2.25 2.25 0 0 1 3.75 15h.75v4.5h-.75a2.25 2.25 0 0 1-2.25-2.25zm15.75 15h22.5a.75.75 0 0 0 .75-.75V9a.75.75 0 0 0-1.28-.53l-22.5 22.5a.75.75 0 0 0 .53 1.28zM39 10.81v1.94h-1.5v1.5H39v1.5h-1.5v1.5H39v1.5h-1.5v1.5H39v1.5h-1.5v1.5H39v1.5h-1.5v1.5H39v1.5h-1.5v1.5H39v1.5h-1.5v-1.5H36v1.5h-1.5v-1.5H33v1.5h-1.5v-1.5H30v1.5h-1.5v-1.5H27v1.5h-1.5v-1.5H24v1.5h-1.5v-1.5H21v1.5h-1.94L39 10.81z" fill="#0CA765"/><path d="M28.113 27.75h7.136A.75.75 0 0 0 36 27v-7.136a.75.75 0 0 0-1.28-.53l-7.136 7.136a.75.75 0 0 0 .53 1.28zm6.386-6.075v4.575h-4.575l4.575-4.575zM34.5 4.5h-15V6h15V4.5zm2.25 3h-19.5V9h19.5V7.5zm-19.5 15.75h-4.5v1.5h4.5v-1.5zm-1.5 3h-3v1.5h3v-1.5z" fill="#0CA765"/></svg>