<svg viewBox="0 0 54 54" fill="none" xmlns="http://www.w3.org/2000/svg"><path d="M6.75 25.313H1.687a1.688 1.688 0 0 0 0 3.375H6.75a1.688 1.688 0 0 0 0-3.375zM27 8.438a1.69 1.69 0 0 0 1.688-1.688V1.687a1.688 1.688 0 0 0-3.375 0V6.75c0 .931.756 1.688 1.687 1.688zm16.236 4.69l3.545-3.545a1.671 1.671 0 1 0-2.364-2.364l-3.546 3.545a1.671 1.671 0 1 0 2.364 2.365zM12.504 39.134L8.96 42.68a1.671 1.671 0 1 0 2.364 2.364l3.545-3.546a1.671 1.671 0 1 0-2.364-2.364zM11.49 13.875c.66.66 1.727.66 2.386 0a1.689 1.689 0 0 0 0-2.386l-3.58-3.581a1.686 1.686 0 0 0-2.386 0c-.66.66-.66 1.728 0 2.386l3.58 3.58zM27 45.563c-.931 0-1.688.755-1.688 1.687v5.063a1.688 1.688 0 0 0 3.375 0V47.25c0-.931-.756-1.688-1.687-1.688zm15.511-5.438a1.685 1.685 0 0 0-2.386 0c-.66.66-.66 1.728 0 2.386l3.58 3.58a1.687 1.687 0 0 0 2.386-2.386l-3.58-3.58zm9.801-14.813H47.25a1.688 1.688 0 0 0 0 3.375h5.063a1.688 1.688 0 0 0 0-3.375zM27 11.803c-8.394 0-15.198 6.804-15.198 15.198S18.606 42.198 27 42.198 42.198 35.394 42.198 27 35.394 11.802 27 11.802zm0 27.007c-6.522 0-11.81-5.287-11.81-11.809 0-6.522 5.288-11.81 11.81-11.81S38.81 20.479 38.81 27 33.521 38.81 27 38.81z" fill="#0CA765"/></svg>