<svg viewBox="0 0 47 45" fill="none" xmlns="http://www.w3.org/2000/svg"><path d="M10.967 27.266h10.966v-7.71H10.967v7.71zm1.566-1.542V23.41h7.834v2.313h-7.834zm7.834-4.626v.77h-7.834v-.77h7.834zm-9.4 9.252v9.252h10.966V30.35H10.967zm4.7 1.542v2.313h-3.134v-2.313h3.134zm-3.134 3.855h3.134v2.313h-3.134v-2.313zm4.7 2.313v-2.313h3.134v2.313h-3.134zm3.134-3.855h-3.134v-2.313h3.134v2.313zm4.699-6.939h10.967v-7.71H25.066v7.71zm1.567-1.542v-.771h7.833v.77h-7.833zm7.833-4.626v2.313h-7.833v-2.313h7.833z" fill="#0CA765"/><path d="M46.217 36.518a.777.777 0 0 0-.784.771v.771h-.783v-.77a.777.777 0 0 0-.783-.772.777.777 0 0 0-.784.771v.771H42.3V22.483c.408.18.84.28 1.274.28.84 0 1.675-.337 2.293-.99a3.069 3.069 0 0 0 .828-2.343 3.084 3.084 0 0 0-1.193-2.184L25.632 1.948 23.5 0l-2.081 1.906-19.92 15.34A3.078 3.078 0 0 0 .306 19.43a3.062 3.062 0 0 0 .828 2.343 3.144 3.144 0 0 0 3.567.71v15.578h-.784v-.771a.777.777 0 0 0-.784-.771.777.777 0 0 0-.783.77v.772h-.783v-.771a.777.777 0 0 0-.784-.771.777.777 0 0 0-.783.77v6.94c0 .426.35.771.783.771a.777.777 0 0 0 .784-.771v-.771h.783v.771c0 .426.35.771.783.771a.777.777 0 0 0 .784-.771v-.771H4.7V45h37.6v-1.542h.783v.771c0 .426.35.771.784.771a.777.777 0 0 0 .783-.771v-.771h.783v.771c0 .426.35.771.784.771a.777.777 0 0 0 .783-.771v-6.94a.777.777 0 0 0-.783-.77zM2.28 20.722a1.51 1.51 0 0 1-.413-1.17c.035-.435.246-.823.596-1.092L22.434 3.08l1.067-.976 1.115 1.017 19.92 15.34c.35.27.561.657.596 1.092.036.435-.111.851-.412 1.17a1.577 1.577 0 0 1-2.104.172l-.316-.239L23.5 6.392 5.005 20.424l-.62.47c-.647.49-1.55.416-2.104-.172zm-.714 21.193v-2.313h.783v2.313h-.783zm2.35 0v-2.313H4.7v2.313h-.783zm22.716 1.542V31.892h7.834v11.565h-7.834zm14.1 0h-4.7V30.35H25.067v13.107h-18.8V21.413L23.5 8.338l17.233 13.075v22.044zm1.567-1.542v-2.313h.783v2.313H42.3zm2.35 0v-2.313h.783v2.313h-.783z" fill="#0CA765"/></svg>