<svg viewBox="0 0 40 43" fill="none" xmlns="http://www.w3.org/2000/svg"><path d="M37.857 0H5C3.786 0 2.857.932 2.857 2.15v.07C1.21 2.542 0 3.972 0 5.732s1.21 3.19 2.857 3.514v.856C1.21 10.427 0 11.856 0 13.617c0 1.76 1.21 3.19 2.857 3.514v.855C1.21 18.31 0 19.739 0 21.5c0 1.76 1.21 3.19 2.857 3.514v.855C1.21 26.194 0 27.623 0 29.383c0 1.76 1.21 3.19 2.857 3.514v.856C1.21 34.077 0 35.506 0 37.267c0 1.76 1.21 3.19 2.857 3.514v.069C2.857 42.068 3.786 43 5 43h32.857C39.072 43 40 42.068 40 40.85V2.15C40 .932 39.071 0 37.857 0zM1.43 5.733c0-.965.582-1.75 1.428-2.034v4.069c-.846-.285-1.428-1.07-1.428-2.035zm0 7.884c0-.965.582-1.75 1.428-2.035v4.07c-.846-.285-1.428-1.07-1.428-2.035zm0 7.883c0-.965.582-1.75 1.428-2.034v4.069c-.846-.285-1.428-1.07-1.428-2.035zm0 7.884c0-.965.582-1.75 1.428-2.035v4.069c-.846-.285-1.428-1.07-1.428-2.034zm0 7.883c0-.965.582-1.75 1.428-2.035v4.07c-.846-.285-1.428-1.07-1.428-2.035zm2.857 3.583v-5.617c.845.284 1.428 1.069 1.428 2.034 0 .43.286.717.715.717.428 0 .714-.287.714-.717 0-1.76-1.21-3.19-2.857-3.514v-6.404c.845.285 1.428 1.07 1.428 2.035 0 .43.286.716.715.716.428 0 .714-.287.714-.716 0-1.761-1.21-3.19-2.857-3.515v-6.403c.845.284 1.428 1.07 1.428 2.034 0 .43.286.717.714.717.43 0 .715-.287.715-.717 0-1.76-1.21-3.19-2.857-3.514v-6.404c.845.285 1.428 1.07 1.428 2.035 0 .43.286.716.715.716.428 0 .714-.286.714-.716 0-1.76-1.21-3.19-2.857-3.514V3.699c.845.285 1.428 1.07 1.428 2.034 0 .43.286.717.715.717.428 0 .714-.287.714-.717 0-1.76-1.21-3.19-2.857-3.514V2.15c0-.43.285-.717.714-.717h5v40.134H5c-.429 0-.714-.287-.714-.717zm34.285 0c0 .43-.285.717-.714.717H11.43V1.433h26.428c.429 0 .714.287.714.717v38.7z" fill="#0CA765"/><path d="M18.787 15.552a.647.647 0 0 0 .5.215.647.647 0 0 0 .5-.215l.214-.215v4.013c0 .43.286.717.714.717h8.572c.428 0 .714-.287.714-.717v-4.013l.214.215a.647.647 0 0 0 .5.215.647.647 0 0 0 .5-.215l2.143-2.15a.651.651 0 0 0 .214-.502.651.651 0 0 0-.214-.501l-7.857-7.884a.647.647 0 0 0-.5-.215.647.647 0 0 0-.5.215L16.644 12.4a.694.694 0 0 0 0 1.003l2.143 2.15zm9.786 3.082H21.43v-4.73L25 10.32l3.572 3.584v4.73zM25 6.02l6.857 6.88-1.143 1.147-.928-.932-4.286-4.3a.393.393 0 0 0-.357-.215H25a.647.647 0 0 0-.5.215l-4.286 4.3-.928.932-1.143-1.147L25 6.02zM15 27.234h7.142c.429 0 .715-.287.715-.717s-.286-.717-.715-.717H15c-.428 0-.714.287-.714.717s.286.717.714.717zM25 25.8c-.43 0-.715.287-.715.717s.286.717.714.717h5c.429 0 .715-.287.715-.717s-.286-.717-.715-.717h-5zm10.002 0h-2.143c-.429 0-.715.287-.715.717s.286.717.715.717h2.143c.428 0 .714-.287.714-.717s-.286-.717-.714-.717zM35 30.1h-5c-.43 0-.715.287-.715.717s.286.716.714.716h5c.429 0 .715-.286.715-.716s-.286-.717-.715-.717zm-7.142.717c0-.43-.286-.717-.715-.717H21.43c-.429 0-.714.287-.714.717s.285.716.714.716h5.714c.429 0 .715-.286.715-.716zM15 31.533h3.57c.43 0 .715-.286.715-.716S19 30.1 18.571 30.1h-3.572c-.428 0-.714.287-.714.717s.286.716.714.716zm5 2.867h-5c-.43 0-.715.287-.715.717s.286.717.714.717h5c.429 0 .715-.287.715-.717s-.286-.717-.715-.717zm9.287 0H22.86c-.429 0-.714.287-.714.717s.285.717.714.717h6.428c.429 0 .715-.287.715-.717s-.286-.717-.715-.717zm5.714 0h-2.857c-.429 0-.714.287-.714.717s.285.717.714.717h2.857c.429 0 .714-.287.714-.717s-.285-.717-.714-.717z" fill="#0CA765"/></svg>