<svg viewBox="0 0 23 33" fill="none" xmlns="http://www.w3.org/2000/svg"><path d="M11.606 7.232c-2.314 0-4.198 1.893-4.198 4.22 0 2.325 1.884 4.218 4.198 4.218 2.315 0 4.198-1.893 4.198-4.219 0-2.326-1.883-4.219-4.198-4.219zm0 7.232a3.01 3.01 0 0 1-2.998-3.013 3.01 3.01 0 0 1 2.998-3.013 3.01 3.01 0 0 1 2.999 3.013 3.01 3.01 0 0 1-2.999 3.013z" fill="#fff"/><path d="M19.633 3.385A11.398 11.398 0 0 0 11.501 0C8.43 0 5.541 1.202 3.37 3.385c-4.02 4.04-4.52 11.639-1.082 16.243L11.501 33l9.2-13.353c3.452-4.623 2.952-12.223-1.068-16.262zm.096 15.557L11.5 30.882 3.26 18.924C.141 14.746.588 7.883 4.217 4.237A10.208 10.208 0 0 1 11.5 1.205a10.21 10.21 0 0 1 7.284 3.032c3.629 3.646 4.075 10.509.944 14.705z" fill="#fff"/></svg>