<svg viewBox="0 0 25 22" fill="none" xmlns="http://www.w3.org/2000/svg">
<path d="M24.7903 16.734C23.9006 15.1489 20.0039 14.1394 16.563 13.948C16.252 13.6195 15.9364 13.2741 15.6128 12.9109C12.6557 9.57551 11.4582 4.72843 11.011 2.16067C10.9578 1.61657 10.8994 1.16424 10.8502 0.827294C10.8103 0.559178 10.7266 -6.62684e-08 10.1372 -6.62684e-08C9.94845 -6.62684e-08 9.76637 0.0799761 9.63679 0.222229C9.4268 0.45888 9.45804 0.71323 9.49525 1.00691C9.53711 1.34386 9.60024 1.79487 9.68995 2.30948C9.9418 4.91657 10.0607 9.88033 8.02668 13.8234C7.8147 14.2344 7.60338 14.6291 7.39339 15.0054C3.58706 16.0975 0.515684 18.0451 0.0658092 19.6604C-0.0969965 20.2451 0.0445447 20.8056 0.465181 21.2396C0.954928 21.7443 1.53305 22 2.18361 22C3.98444 22 6.03712 20.0216 8.28451 16.1218C9.28526 15.8622 10.2787 15.6812 11.2389 15.5855C11.6131 15.5482 12.2184 15.4701 12.5906 15.4138C13.6159 15.2577 14.7761 15.1948 15.9683 15.2335C18.7273 18.0628 20.9833 19.4971 22.6739 19.4971C23.5816 19.4965 24.3332 19.0599 24.789 18.268C25.0694 17.7777 25.0708 17.2322 24.7903 16.734ZM2.18295 20.6889C1.90119 20.6889 1.66064 20.5762 1.42474 20.333C1.32838 20.234 1.30712 20.1487 1.34699 20.0085C1.57891 19.1766 3.52726 17.7508 6.3747 16.7157C4.76591 19.2198 3.22623 20.6889 2.18295 20.6889ZM12.3865 14.1197C12.033 14.1735 11.4589 14.2469 11.104 14.2836C10.4588 14.3465 9.79561 14.4468 9.12644 14.5819C9.15435 14.5281 9.18226 14.4737 9.21017 14.4193C10.2076 12.4861 10.8256 10.1681 11.0542 7.5112C11.9692 10.0377 13.1627 12.1393 14.612 13.7743C14.6545 13.8228 14.6991 13.8719 14.7416 13.9218C13.905 13.9414 13.1155 14.0089 12.3865 14.1197ZM23.6301 17.6243C23.4095 18.0097 23.0958 18.1887 22.646 18.1887H22.6453C21.5887 18.1887 19.964 17.2021 18.019 15.3928C21.0292 15.7658 23.2334 16.6645 23.6288 17.3692C23.6859 17.4715 23.6859 17.5259 23.6301 17.6243Z" fill="white"/>
</svg>
