<svg viewBox="0 0 20 14" fill="none" xmlns="http://www.w3.org/2000/svg">
<path d="M4.03295 4.06316C3.95363 4.06316 3.8743 4.03458 3.81239 3.9768L0.101571 0.54903C-0.0280559 0.429648 -0.0345058 0.228351 0.0873825 0.100715C0.209271 -0.0281913 0.412418 -0.0339066 0.543335 0.0867447L4.25416 3.51451C4.38378 3.63389 4.39023 3.83519 4.26835 3.96283C4.2045 4.0295 4.11937 4.06316 4.03295 4.06316Z" transform="translate(12.1602 6.75)" fill="white"/>
<path d="M0.322776 4.06244C0.237002 4.06244 0.151229 4.02878 0.0873831 3.9621C-0.0345052 3.83447 -0.0280562 3.63317 0.101571 3.51379L3.81368 0.0860222C3.94395 -0.0333592 4.14839 -0.0282789 4.26964 0.0999925C4.39152 0.227629 4.38507 0.428926 4.25545 0.548307L0.543335 3.97608C0.481424 4.03386 0.4021 4.06244 0.322776 4.06244Z" transform="translate(3.48438 6.75098)" fill="white"/>
<path d="M18.3877 14H1.61228C0.723591 14 0 13.2882 0 12.4125V1.58752C0 0.711843 0.723591 -7.99379e-08 1.61228 -7.99379e-08H18.3877C19.2764 -7.99379e-08 20 0.711843 20 1.58752V12.4125C20 13.2882 19.2764 14 18.3877 14ZM1.61228 0.635007C1.07894 0.635007 0.644912 1.06237 0.644912 1.58752V12.4125C0.644912 12.9376 1.07894 13.365 1.61228 13.365H18.3877C18.9211 13.365 19.3551 12.9376 19.3551 12.4125V1.58752C19.3551 1.06237 18.9211 0.635007 18.3877 0.635007H1.61228Z" fill="white"/>
<path d="M9.57538 8.08949C9.14652 8.08949 8.71765 7.94915 8.39132 7.66911L0.110659 0.556401C-0.0234824 0.441464 -0.0376704 0.240802 0.0790586 0.108086C0.197077 -0.0239959 0.400225 -0.0360609 0.534366 0.0776053L8.81503 7.18968C9.22713 7.54338 9.92364 7.54338 10.3351 7.18968L18.6054 0.0890355C18.7389 -0.0259007 18.9421 -0.0132007 19.0607 0.119516C19.1775 0.252232 19.1639 0.452259 19.0298 0.567831L10.7594 7.66848C10.4325 7.94915 10.0042 8.08949 9.57538 8.08949Z" transform="translate(0.423828 0.505859)" fill="white"/>
</svg>
