<svg viewBox="0 0 15 15" fill="none" xmlns="http://www.w3.org/2000/svg">
<path d="M12.0558 15C11.4317 15 10.6779 14.8436 9.849 14.5308C8.03169 13.8456 6.05445 12.4915 4.28154 10.7186C2.50813 8.9452 1.15398 6.96746 0.468329 5.15017C-0.154762 3.49785 -0.156275 2.14169 0.464797 1.52112C0.554099 1.43182 0.644914 1.33596 0.738756 1.23707C1.30534 0.64123 1.94558 -0.0292828 2.7942 0.000988674C3.37895 0.0252059 3.94553 0.388464 4.52574 1.11044C6.24012 3.24256 5.46718 4.00237 4.57266 4.88327L4.41474 5.03968C4.26843 5.18599 3.99195 5.86356 6.56402 8.43563C7.40356 9.27516 8.11948 9.88967 8.69162 10.2615C9.05185 10.4956 9.69613 10.8498 9.9605 10.5854L10.1194 10.425C10.9993 9.53247 11.7591 8.76206 13.8898 10.4749C14.6117 11.0551 14.9745 11.6212 14.9987 12.207C15.0335 13.0551 14.358 13.6968 13.7616 14.2629C13.6632 14.3567 13.5674 14.4475 13.4781 14.5363C13.1698 14.8451 12.6769 15 12.0558 15ZM2.73366 0.504504C2.13075 0.504504 1.58636 1.07764 1.10454 1.58469C1.00767 1.68661 0.913827 1.78549 0.821498 1.87782C0.358847 2.33996 0.405768 3.55436 0.940566 4.97257C1.6015 6.72428 2.91478 8.63845 4.63875 10.3624C6.36221 12.0854 8.27538 13.3986 10.0276 14.0591C11.4458 14.5949 12.6602 14.6403 13.1219 14.1786C13.2142 14.0863 13.3131 13.9925 13.415 13.8961C13.9331 13.4037 14.5209 12.8457 14.4952 12.2266C14.4775 11.8013 14.1678 11.3437 13.5744 10.8669C11.799 9.43913 11.3025 9.94315 10.4792 10.7781L10.3177 10.9411C9.92418 11.3351 9.28494 11.2479 8.41715 10.6838C7.81525 10.2923 7.07158 9.65557 6.20783 8.79132C4.07317 6.65718 3.39055 5.35097 4.05854 4.68146L4.21949 4.52254C5.0565 3.69915 5.56153 3.2022 4.13321 1.42577C3.65543 0.83295 3.19832 0.523172 2.77301 0.505009C2.75989 0.504504 2.74677 0.504504 2.73366 0.504504Z" fill="white"/>
</svg>
