<svg width="15" height="15" viewBox="0 0 15 15" fill="none" xmlns="http://www.w3.org/2000/svg">
<path d="M7.5 0C3.36433 0 0 3.36433 0 7.5C0 11.6357 3.36433 15 7.5 15C11.6357 15 15 11.6357 15 7.5C15 3.36433 11.6357 0 7.5 0ZM7.5 14.4231C3.68279 14.4231 0.576923 11.3172 0.576923 7.5C0.576923 3.68279 3.68279 0.576923 7.5 0.576923C11.3172 0.576923 14.4231 3.68279 14.4231 7.5C14.4231 11.3172 11.3172 14.4231 7.5 14.4231Z" fill="#5AD69A"/>
<path d="M0.288462 0C0.128942 0 0 0.128942 0 0.288462V0.865385C0 1.0249 0.128942 1.15385 0.288462 1.15385C0.447981 1.15385 0.576923 1.0249 0.576923 0.865385V0.288462C0.576923 0.128942 0.447981 0 0.288462 0Z" transform="translate(7.21094 10.6733)" fill="#5AD69A"/>
<path d="M2.34029 0.000288578C2.32933 0.000288578 2.31837 0 2.30712 0C1.69673 0 1.12269 0.235096 0.687404 0.664615C0.244327 1.10163 0 1.68519 0 2.30769C0 2.46721 0.128942 2.59615 0.288462 2.59615C0.447981 2.59615 0.576923 2.46721 0.576923 2.30769C0.576923 1.84096 0.760096 1.40308 1.0924 1.07538C1.425 0.747404 1.86779 0.56625 2.3325 0.577212C3.24433 0.589904 4.02548 1.37106 4.03817 2.28288C4.04654 2.88404 3.75 3.43731 3.24462 3.76327C2.47731 4.25827 2.01923 5.13288 2.01923 6.10327V6.92308C2.01923 7.0826 2.14817 7.21154 2.30769 7.21154C2.46721 7.21154 2.59615 7.0826 2.59615 6.92308V6.10327C2.59615 5.34115 2.96423 4.63067 3.55731 4.24788C4.23087 3.81346 4.62635 3.07587 4.6151 2.27481C4.59779 1.03817 3.57721 0.0175963 2.34029 0.000288578Z" transform="translate(5.19336 2.59619)" fill="#5AD69A"/>
</svg>
