<svg viewBox="0 0 40 43" fill="none" xmlns="http://www.w3.org/2000/svg">
<path d="M37.8571 0H10.7143H4.99997C3.78566 0 2.85711 0.931646 2.85711 2.15002V2.2193C1.20971 2.54349 -4.72579e-08 3.97274 -4.72579e-08 5.73332C-4.72579e-08 7.4939 1.20971 8.92316 2.85711 9.24734V10.1026C1.20971 10.4268 -4.72579e-08 11.8561 -4.72579e-08 13.6167C-4.72579e-08 15.3772 1.20971 16.8065 2.85711 17.1307V17.986C1.20971 18.3102 -4.72579e-08 19.7394 -4.72579e-08 21.5C-4.72579e-08 23.2606 1.20971 24.6898 2.85711 25.014V25.8693C1.20971 26.1935 -4.72579e-08 27.6228 -4.72579e-08 29.3833C-4.72579e-08 31.1439 1.20971 32.5732 2.85711 32.8974V33.7527C1.20971 34.0768 -4.72579e-08 35.5061 -4.72579e-08 37.2667C-4.72579e-08 39.0273 1.20971 40.4565 2.85711 40.7807V40.85C2.85711 42.0684 3.78566 43 4.99997 43H10.7143H37.8571C39.0715 43 40 42.0684 40 40.85V2.15002C39.9999 0.931646 39.0714 0 37.8571 0ZM1.42851 5.73341C1.42851 4.76833 2.01135 3.98375 2.85711 3.69895V7.76786C2.01144 7.48307 1.42851 6.69839 1.42851 5.73341ZM1.42851 13.6167C1.42851 12.6517 2.01135 11.8671 2.85711 11.5823V15.6512C2.01144 15.3665 1.42851 14.5818 1.42851 13.6167ZM1.42851 21.5002C1.42851 20.5351 2.01135 19.7505 2.85711 19.4657V23.5346C2.01144 23.2498 1.42851 22.4652 1.42851 21.5002ZM1.42851 29.3836C1.42851 28.4185 2.01135 27.6339 2.85711 27.3491V31.418C2.01144 31.1333 1.42851 30.3486 1.42851 29.3836ZM1.42851 37.2669C1.42851 36.3019 2.01135 35.5173 2.85711 35.2325V39.3014C2.01144 39.0167 1.42851 38.232 1.42851 37.2669ZM4.28571 40.8503V35.2325C5.13139 35.5173 5.71431 36.3019 5.71431 37.2669C5.71431 37.6969 6 37.9836 6.42857 37.9836C6.85714 37.9836 7.14282 37.6969 7.14282 37.2669C7.14282 35.5064 5.93312 34.0771 4.28571 33.7529V27.3491C5.13139 27.6338 5.71431 28.4185 5.71431 29.3835C5.71431 29.8135 6 30.1001 6.42857 30.1001C6.85714 30.1001 7.14282 29.8135 7.14282 29.3835C7.14282 27.6229 5.93312 26.1937 4.28571 25.8695V19.4656C5.13139 19.7505 5.71423 20.5351 5.71423 21.5002C5.71423 21.9302 5.99991 22.2168 6.42848 22.2168C6.85705 22.2168 7.14282 21.9302 7.14282 21.5002C7.14282 19.7396 5.93312 18.3103 4.28571 17.9862V11.5823C5.13139 11.8671 5.71431 12.6518 5.71431 13.6167C5.71431 14.0467 6 14.3334 6.42857 14.3334C6.85714 14.3334 7.14282 14.0467 7.14282 13.6167C7.14282 11.8562 5.93312 10.4269 4.28571 10.1027V3.69887C5.13139 3.98366 5.71431 4.76833 5.71431 5.73332C5.71431 6.16333 6 6.44997 6.42857 6.44997C6.85714 6.44997 7.14282 6.16333 7.14282 5.73332C7.14282 3.97274 5.93312 2.54349 4.28571 2.2193V2.15002C4.28571 1.72001 4.5714 1.43337 4.99997 1.43337H9.99994V41.567H4.99997C4.5714 41.567 4.28571 41.2803 4.28571 40.8503ZM38.5714 40.8503C38.5714 41.2803 38.2857 41.567 37.8571 41.567H11.4285V1.43337H37.8571C38.2856 1.43337 38.5713 1.72001 38.5713 2.15002V40.8503H38.5714Z" fill="#0CA765"/>
<path d="M2.35704 11.2517C2.49992 11.3951 2.64272 11.4667 2.85701 11.4667C3.07129 11.4667 3.21418 11.3951 3.35698 11.2517L3.57127 11.0367V15.0501C3.57127 15.4801 3.85695 15.7668 4.28552 15.7668H12.8569C13.2855 15.7668 13.5712 15.4801 13.5712 15.0501V11.0367L13.7855 11.2517C13.9284 11.3951 14.0712 11.4667 14.2855 11.4667C14.4997 11.4667 14.6426 11.3951 14.7854 11.2517L16.9283 9.10171C17.0712 8.95835 17.1426 8.81507 17.1426 8.60007C17.1426 8.38507 17.0712 8.2417 16.9283 8.09842L9.07137 0.215002C8.92849 0.0716391 8.78569 6.40755e-08 8.5714 6.40755e-08C8.35712 6.40755e-08 8.21423 0.0716391 8.07143 0.215002L0.214264 8.09842C-0.0714218 8.38507 -0.0714218 8.81507 0.214264 9.10179L2.35704 11.2517ZM12.1428 14.3335H4.99995V9.60344L8.5714 6.02005L12.1429 9.60344V14.3335H12.1428ZM8.57132 1.72001L15.4285 8.60007L14.2856 9.74672L13.3572 8.81515L13.3571 8.81507L9.07137 4.51504C8.99997 4.37167 8.85709 4.30003 8.7142 4.30003C8.7142 4.30003 8.6428 4.30003 8.57132 4.30003C8.35703 4.30003 8.21415 4.37167 8.07135 4.51504L3.78563 8.81507L3.78555 8.81515L2.85709 9.74672L1.71418 8.60007L8.57132 1.72001Z" transform="translate(16.4297 4.30029)" fill="#0CA765"/>
<path d="M0.714257 1.43329H7.85708C8.28565 1.43329 8.57134 1.14665 8.57134 0.716645C8.57134 0.286642 8.28565 -9.43191e-07 7.85708 -9.43191e-07H0.714257C0.285686 -9.43191e-07 -5.4155e-07 0.286642 -5.4155e-07 0.716645C-5.4155e-07 1.14665 0.285686 1.43329 0.714257 1.43329Z" transform="translate(14.2852 25.8003)" fill="#0CA765"/>
<path d="M0.714257 1.02521e-06C0.285686 1.02521e-06 1.02179e-06 0.286641 1.02179e-06 0.716644C1.02179e-06 1.14665 0.285686 1.43329 0.714257 1.43329H5.71423C6.1428 1.43329 6.42848 1.14665 6.42848 0.716644C6.42848 0.286641 6.1428 1.02521e-06 5.71423 1.02521e-06H0.714257Z" transform="translate(24.2852 25.8003)" fill="#0CA765"/>
<path d="M2.85711 1.02521e-06H0.714258C0.285687 1.02521e-06 -1.16484e-06 0.286641 -1.16484e-06 0.716644C-1.16484e-06 1.14665 0.285687 1.43329 0.714258 1.43329H2.85711C3.28569 1.43329 3.57137 1.14665 3.57137 0.716644C3.57137 0.286641 3.28569 1.02521e-06 2.85711 1.02521e-06Z" transform="translate(32.1445 25.8003)" fill="#0CA765"/>
<path d="M5.71423 -5.12604e-07H0.714258C0.285687 -5.12604e-07 -7.96999e-07 0.286642 -7.96999e-07 0.716645C-7.96999e-07 1.14665 0.285687 1.43329 0.714258 1.43329H5.71423C6.1428 1.43329 6.42848 1.14665 6.42848 0.716645C6.42848 0.286642 6.1428 -5.12604e-07 5.71423 -5.12604e-07Z" transform="translate(29.2852 30.1001)" fill="#0CA765"/>
<path d="M7.14282 0.716645C7.14282 0.286642 6.85714 -5.12604e-07 6.42857 -5.12604e-07H0.714256C0.285685 -5.12604e-07 -2.86102e-07 0.286642 -2.86102e-07 0.716645C-2.86102e-07 1.14665 0.285685 1.43329 0.714256 1.43329H6.42857C6.85706 1.43337 7.14282 1.14665 7.14282 0.716645Z" transform="translate(20.7148 30.1001)" fill="#0CA765"/>
<path d="M0.714257 1.43329H4.28571C4.71428 1.43329 4.99997 1.14665 4.99997 0.716644C4.99997 0.28664 4.71428 8.20166e-08 4.28571 8.20166e-08H0.714257C0.285686 8.20166e-08 -5.4155e-07 0.28664 -5.4155e-07 0.716644C-5.4155e-07 1.14665 0.285686 1.43329 0.714257 1.43329Z" transform="translate(14.2852 30.1001)" fill="#0CA765"/>
<path d="M5.71423 5.12604e-07H0.714257C0.285686 5.12604e-07 -5.4155e-07 0.286641 -5.4155e-07 0.716644C-5.4155e-07 1.14665 0.285686 1.43329 0.714257 1.43329H5.71423C6.1428 1.43329 6.42848 1.14665 6.42848 0.716644C6.42848 0.286641 6.1428 5.12604e-07 5.71423 5.12604e-07Z" transform="translate(14.2852 34.4004)" fill="#0CA765"/>
<path d="M7.14283 5.12604e-07H0.714257C0.285686 5.12604e-07 5.10897e-07 0.286641 5.10897e-07 0.716644C5.10897e-07 1.14665 0.285686 1.43329 0.714257 1.43329H7.14283C7.5714 1.43329 7.85708 1.14665 7.85708 0.716644C7.85708 0.286641 7.5714 5.12604e-07 7.14283 5.12604e-07Z" transform="translate(22.1445 34.4004)" fill="#0CA765"/>
<path d="M3.57137 5.12604e-07H0.714256C0.285685 5.12604e-07 -2.86102e-07 0.286641 -2.86102e-07 0.716644C-2.86102e-07 1.14665 0.285685 1.43329 0.714256 1.43329H3.57137C3.99994 1.43329 4.28563 1.14665 4.28563 0.716644C4.28563 0.286641 3.99994 5.12604e-07 3.57137 5.12604e-07Z" transform="translate(31.4297 34.4004)" fill="#0CA765"/>
</svg>
