<svg viewBox="0 0 47 45" fill="none" xmlns="http://www.w3.org/2000/svg">
<path d="M0 7.7101H10.9667V-6.11763e-07H0V7.7101ZM1.56667 6.16808V3.85505H9.4V6.16808H1.56667ZM9.4 1.54202V2.31303H1.56667V1.54202H9.4Z" transform="translate(10.9668 19.5557)" fill="#0CA765"/>
<path d="M0 -6.11763e-07V9.25212H10.9667V-6.11763e-07H0ZM4.7 1.54202V3.85505H1.56667V1.54202H4.7ZM1.56667 5.39707H4.7V7.7101H1.56667V5.39707ZM6.26667 7.7101V5.39707H9.4V7.7101H6.26667ZM9.4 3.85505H6.26667V1.54202H9.4V3.85505Z" transform="translate(10.9668 30.3501)" fill="#0CA765"/>
<path d="M0 7.7101H10.9667V-6.11763e-07H0V7.7101ZM1.56667 6.16808V5.39707H9.4V6.16808H1.56667ZM9.4 1.54202V3.85505H1.56667V1.54202H9.4Z" transform="translate(25.0664 19.5557)" fill="#0CA765"/>
<path d="M46.2167 36.5181C45.7835 36.5181 45.4333 36.8635 45.4333 37.2891V38.0601H44.65V37.2891C44.65 36.8635 44.2999 36.5181 43.8667 36.5181C43.4335 36.5181 43.0833 36.8635 43.0833 37.2891V38.0601H42.3V22.4827C42.7081 22.6631 43.1405 22.7625 43.5737 22.7625C44.4142 22.7625 45.2493 22.4264 45.8665 21.7726C46.4618 21.1419 46.7634 20.2884 46.6945 19.4302C46.6248 18.5729 46.19 17.7764 45.5023 17.246L25.6322 1.94834L23.5 1.43382e-08L21.4187 1.90594L1.49852 17.246C0.809967 17.7764 0.375217 18.5729 0.306283 19.4302C0.23735 20.2884 0.538933 21.1419 1.13427 21.7726C2.06957 22.7641 3.50072 23.0139 4.70078 22.4834V38.0609H3.91667V37.2899C3.91667 36.8643 3.56652 36.5189 3.13333 36.5189C2.70015 36.5189 2.35 36.8643 2.35 37.2899V38.0609H1.56667V37.2899C1.56667 36.8643 1.21652 36.5189 0.783333 36.5189C0.35015 36.5189 0 36.8643 0 37.2899V44.229C0 44.6546 0.35015 45 0.783333 45C1.21652 45 1.56667 44.6546 1.56667 44.229V43.458H2.35V44.229C2.35 44.6546 2.70015 45 3.13333 45C3.56652 45 3.91667 44.6546 3.91667 44.229V43.458H4.7V45H25.0667H36.0333H42.3V43.458H43.0833V44.229C43.0833 44.6546 43.4335 45 43.8667 45C44.2999 45 44.65 44.6546 44.65 44.229V43.458H45.4333V44.229C45.4333 44.6546 45.7835 45 46.2167 45C46.6498 45 47 44.6546 47 44.229V37.2899C47 36.8635 46.6498 36.5181 46.2167 36.5181ZM2.28107 20.7224C1.97948 20.4025 1.833 19.9869 1.86825 19.552C1.9035 19.1172 2.11422 18.7294 2.46437 18.4603L22.4347 3.07864L23.5008 2.10332L24.6162 3.12028L44.5364 18.4603C44.8858 18.7294 45.0973 19.1172 45.1325 19.552C45.1678 19.9869 45.0205 20.4032 44.7197 20.7224C44.1651 21.3099 43.2619 21.384 42.6157 20.8944L42.3 20.6554L23.5 6.39167L5.0055 20.4241L5.00472 20.4248L4.3851 20.8944C3.73807 21.384 2.83567 21.3099 2.28107 20.7224ZM1.56667 41.9152V39.6022H2.35V41.9152H1.56667ZM3.91667 41.9152V39.6022H4.7V41.9152H3.91667ZM26.6333 43.4572V31.8921H34.4667V43.4572H26.6333ZM40.7333 43.4572H36.0333V30.35H25.0667V43.4572H6.26667V21.4133L23.5 8.3377L40.7333 21.4133V43.4572ZM42.3 41.9152V39.6022H43.0833V41.9152H42.3ZM44.65 41.9152V39.6022H45.4333V41.9152H44.65Z" fill="#0CA765"/>
</svg>
