<svg viewBox="0 0 48 48" fill="none" xmlns="http://www.w3.org/2000/svg">
<path d="M46.9812 20.7282H45.7567V12.4604C45.7567 10.5208 44.2286 8.99265 42.3869 8.99265H41.4661V3.46776C41.4661 1.52816 40.0359 0 38.302 0C38.302 0 38.2041 0 38.0963 0L3.16408 8.98286C3.15429 8.98286 3.13469 8.99265 3.1249 8.99265C1.40082 9.1298 0 10.609 0 12.4604V44.5322C0 46.4718 1.52816 48 3.3698 48H42.3869C44.3265 48 45.8547 46.4718 45.8547 44.5322V36.049H46.9812C47.5984 36.049 48 35.6376 48 35.0302V21.7567C48 21.1396 47.4906 20.7282 46.9812 20.7282ZM38.498 1.93959C39.0073 2.03755 39.5167 2.65469 39.5167 3.46776V8.98286H11.3339L38.498 1.93959ZM43.8171 44.5322C43.8171 45.3453 43.2 46.0604 42.3869 46.0604H3.3698C2.55673 46.0604 1.93959 45.3453 1.93959 44.5322V12.4604C1.93959 11.6473 2.55673 10.9322 3.3698 10.9322H42.2792C43.0922 10.9322 43.7094 11.6473 43.7094 12.4604V20.7282H33.6C29.3094 20.7282 25.9396 24.098 25.9396 28.3886C25.9396 32.6792 29.4073 36.049 33.6 36.049H43.8171V44.5322ZM45.9527 34.1094H33.6C30.5339 34.1094 27.9869 31.5527 27.9869 28.4963C27.9869 25.44 30.5437 22.8833 33.6 22.8833H45.9527V34.1094Z" fill="#0CA765"/>
<path d="M0 1.01877C0 1.63592 0.509387 2.03755 1.01877 2.03755H1.93959C2.44898 2.03755 2.95837 1.62612 2.95837 1.01877C2.95837 0.401632 2.44898 0 1.93959 0H1.02857C0.411429 0 0 0.411428 0 1.01877Z" transform="translate(32.4727 27.5757)" fill="#0CA765"/>
</svg>
