<svg viewBox="0 0 45 45" fill="none" xmlns="http://www.w3.org/2000/svg">
<path d="M41.2499 0H7.49999C7.0858 0 6.74999 0.335812 6.74999 0.75V12H8.24999V1.5H40.4999V42.75C40.5072 43.1444 40.2028 43.4748 39.8092 43.5C39.7447 43.5 39.6802 43.4948 39.6157 43.4933C39.4829 43.4895 39.3502 43.4865 39.2197 43.473C39.2084 43.473 39.1979 43.473 39.1867 43.4685C36.7372 43.2007 34.8023 41.2677 34.5322 38.8185C34.5322 38.808 34.5284 38.7967 34.5269 38.7863C34.5088 38.608 34.4998 38.4291 34.4999 38.25V36.75C34.4999 36.3358 34.1641 36 33.7499 36H8.24999V22.5H6.74999V36H0.749999C0.335812 36 0 36.3358 0 36.75V38.25C0.00412499 41.9762 3.02381 44.9959 6.74999 45H39.8249C41.042 44.9681 42.0093 43.9674 41.9999 42.75V0.75C41.9999 0.335812 41.6641 0 41.2499 0ZM6.74999 43.5C3.8519 43.4967 1.50328 41.1481 1.5 38.25V37.5H33V38.25C33.001 38.4973 33.0152 38.7444 33.0427 38.9902C33.0494 39.0555 33.0622 39.1185 33.0712 39.183C33.096 39.3645 33.1259 39.5452 33.1657 39.723C33.1792 39.7853 33.1964 39.8468 33.2122 39.909C33.2579 40.0898 33.3097 40.2675 33.3697 40.443C33.3869 40.4932 33.4049 40.5428 33.4237 40.593C33.4919 40.779 33.5692 40.9605 33.6539 41.1398C33.6719 41.1765 33.6884 41.2148 33.7064 41.2485C33.8005 41.4385 33.9037 41.6232 34.0162 41.8027C34.0312 41.8267 34.0447 41.8515 34.0597 41.8778C34.1819 42.0693 34.3139 42.2545 34.4549 42.4328L34.4789 42.465C34.6426 42.6706 34.8179 42.8666 35.0039 43.0522C35.1655 43.2123 35.3329 43.3623 35.5064 43.5023L6.74999 43.5Z" transform="translate(3)" fill="#0CA765"/>
<path d="M24.75 7.5C24.9489 7.5 25.1396 7.42088 25.2802 7.28025L28.2802 4.28025C28.573 3.98738 28.573 3.51262 28.2802 3.21975L25.2802 0.219749C25.1396 0.0791245 24.9489 0 24.75 0H3.74999C1.67897 0 0 1.67897 0 3.75C0 5.82103 1.67897 7.5 3.74999 7.5H24.75ZM24.5565 1.617L26.6895 3.75L24.5565 5.883L24.0232 3.75L24.5565 1.617ZM5.99999 1.5H23.04L22.665 3H7.49999V4.5H22.665L23.04 6H5.99999V1.5ZM1.5 3.75C1.5 2.50734 2.50734 1.5 3.74999 1.5H4.49999V6H3.74999C2.50734 6 1.5 4.99266 1.5 3.75Z" transform="translate(0 13.5)" fill="#0CA765"/>
<path d="M0.749847 23.9998H23.2498C23.664 23.9998 23.9998 23.664 23.9998 23.2498V0.749813C23.9997 0.335625 23.6639 -9.38334e-05 23.2496 -8.33667e-08C23.0508 -8.33667e-08 22.8602 0.0790314 22.7196 0.219563L0.219597 22.7196C-0.0732778 23.0125 -0.0731841 23.4874 0.219784 23.7802C0.360409 23.9208 0.551003 23.9998 0.749847 23.9998ZM22.4998 2.56031V4.49981H20.9998V5.99981H22.4998V7.49981H20.9998V8.99981H22.4998V10.4998H20.9998V11.9998H22.4998V13.4998H20.9998V14.9998H22.4998V16.4998H20.9998V17.9998H22.4998V19.4998H20.9998V20.9998H22.4998V22.4998H20.9998V20.9998H19.4998V22.4998H17.9998V20.9998H16.4998V22.4998H14.9998V20.9998H13.4998V22.4998H11.9998V20.9998H10.4998V22.4998H8.99983V20.9998H7.49984V22.4998H5.99984V20.9998H4.49984V22.4998H2.56034L22.4998 2.56031Z" transform="translate(16.5 8.25049)" fill="#0CA765"/>
<path d="M0.749847 8.63606H7.88609C8.30027 8.63606 8.63608 8.30025 8.63608 7.88606V0.749813C8.63599 0.335625 8.30018 -9.33756e-05 7.8859 3.74397e-07C7.68705 3.74397e-07 7.49646 0.0790312 7.35584 0.219562L0.219597 7.35581C-0.0732773 7.64878 -0.0731822 8.12362 0.219786 8.4165C0.360411 8.55703 0.551004 8.63606 0.749847 8.63606ZM7.13609 2.56106V7.13606H2.56109L7.13609 2.56106Z" transform="translate(27.3633 19.1138)" fill="#0CA765"/>
<path d="M15 0H0V1.5H15V0Z" transform="translate(19.5 4.5)" fill="#0CA765"/>
<path d="M19.5 0H0V1.5H19.5V0Z" transform="translate(17.25 7.5)" fill="#0CA765"/>
<path d="M4.49999 0H0V1.5H4.49999V0Z" transform="translate(12.75 23.25)" fill="#0CA765"/>
<path d="M3 0H0V1.5H3V0Z" transform="translate(12.75 26.25)" fill="#0CA765"/>
</svg>
