<svg viewBox="0 0 54 54" fill="none" xmlns="http://www.w3.org/2000/svg">
<path d="M6.75 25.3125H1.6875C0.756 25.3125 0 26.0685 0 27C0 27.9315 0.756 28.6875 1.6875 28.6875H6.75C7.6815 28.6875 8.4375 27.9315 8.4375 27C8.4375 26.0685 7.6815 25.3125 6.75 25.3125ZM27 8.4375C27.9315 8.4375 28.6875 7.6815 28.6875 6.75V1.6875C28.6875 0.756 27.9315 0 27 0C26.0685 0 25.3125 0.756 25.3125 1.6875V6.75C25.3125 7.6815 26.0685 8.4375 27 8.4375ZM43.2355 13.1287L46.7809 9.58324C47.434 8.93021 47.434 7.87209 46.7809 7.21906C46.1279 6.56603 45.0697 6.56603 44.4167 7.21906L40.8712 10.7645C40.2182 11.4176 40.2182 12.4757 40.8712 13.1287C41.5243 13.7818 42.5824 13.7818 43.2355 13.1287ZM12.5044 39.1331L8.95888 42.6786C8.30585 43.3316 8.30585 44.3898 8.95888 45.0428C9.61191 45.6958 10.67 45.6958 11.3231 45.0428L14.8685 41.4973C15.5216 40.8443 15.5216 39.7862 14.8685 39.1331C14.2155 38.4801 13.1575 38.48 12.5044 39.1331ZM11.4885 13.8746C12.1483 14.5345 13.2165 14.5345 13.8746 13.8746C14.5327 13.2148 14.5327 12.1466 13.8746 11.4886L10.2955 7.90765C9.63565 7.24782 8.56747 7.24782 7.90932 7.90765C7.2495 8.56747 7.2495 9.63565 7.90932 10.2938L11.4885 13.8746ZM27 45.5625C26.0685 45.5625 25.3125 46.3185 25.3125 47.25V52.3125C25.3125 53.244 26.0685 54 27 54C27.9315 54 28.6875 53.244 28.6875 52.3125V47.25C28.6875 46.3185 27.9315 45.5625 27 45.5625ZM42.5115 40.1254C41.8517 39.4655 40.7835 39.4655 40.1254 40.1254C39.4655 40.7853 39.4655 41.8534 40.1254 42.5115L43.7045 46.0907C44.3644 46.7505 45.4325 46.7505 46.0907 46.0907C46.7488 45.4308 46.7505 44.3627 46.0907 43.7045L42.5115 40.1254ZM52.3125 25.3125H47.25C46.3185 25.3125 45.5625 26.0685 45.5625 27C45.5625 27.9315 46.3185 28.6875 47.25 28.6875H52.3125C53.244 28.6875 54 27.9315 54 27C54 26.0685 53.244 25.3125 52.3125 25.3125ZM27 11.8024C18.6064 11.8024 11.8024 18.6064 11.8024 27C11.8024 35.3936 18.6064 42.1976 27 42.1976C35.3936 42.1976 42.1976 35.3936 42.1976 27C42.1976 18.6064 35.3936 11.8024 27 11.8024ZM27 38.8091C20.4778 38.8091 15.1909 33.5222 15.1909 27C15.1909 20.4778 20.4778 15.1909 27 15.1909C33.5222 15.1909 38.8091 20.4778 38.8091 27C38.8091 33.5222 33.5222 38.8091 27 38.8091Z" fill="#0CA765"/>
</svg>
