<svg viewBox="0 0 23 33" fill="none" xmlns="http://www.w3.org/2000/svg">
<path d="M4.19806 0C1.88373 0 -4.75855e-07 1.89296 -4.75855e-07 4.21864C-4.75855e-07 6.54431 1.88373 8.43728 4.19806 8.43728C6.5124 8.43728 8.39613 6.54431 8.39613 4.21864C8.39613 1.89296 6.5124 0 4.19806 0ZM4.19806 7.23195C2.54463 7.23195 1.19945 5.88018 1.19945 4.21864C1.19945 2.5571 2.54463 1.20533 4.19806 1.20533C5.8515 1.20533 7.19668 2.5571 7.19668 4.21864C7.19668 5.88018 5.8515 7.23195 4.19806 7.23195Z" transform="translate(7.4082 7.23242)" fill="white"/>
<path d="M19.6334 3.38516C17.4612 1.20231 14.5729 0 11.5012 0C8.42878 0 5.54111 1.20231 3.36891 3.38516C-0.651031 7.4242 -1.1506 15.0238 2.28701 19.6281L11.5012 33L20.7015 19.6468C24.1529 15.0238 23.6534 7.4242 19.6334 3.38516ZM19.7288 18.9423L11.5012 30.8822L3.26036 18.9236C0.142403 14.7459 0.589197 7.88283 4.21752 4.23732C6.16303 2.28228 8.74963 1.20533 11.5012 1.20533C14.2527 1.20533 16.8393 2.28228 18.7854 4.23732C22.4137 7.88283 22.8605 14.746 19.7288 18.9423Z" fill="white"/>
</svg>
